<svg width="35" height="35" viewBox="0 0 35 35" fill="none" xmlns="http://www.w3.org/2000/svg">
<path d="M4.81088 25.6609C5.44088 27.6035 7.35567 28.843 9.3988 28.843H9.479C9.66645 29.7579 10.164 30.58 10.8875 31.1704C11.611 31.7608 12.5162 32.0833 13.45 32.0834C14.1165 32.0834 14.7392 31.9157 15.2905 31.627C15.5205 31.5009 15.7119 31.3145 15.8442 31.0879C15.9765 30.8614 16.0447 30.6031 16.0415 30.3407V4.41449C16.0445 4.08038 15.9322 3.75546 15.7237 3.49437C15.5152 3.23329 15.2232 3.05198 14.8967 2.98095C14.1651 2.83884 13.407 2.94187 12.7398 3.27407C11.6548 3.79324 11.019 4.95261 11.019 6.15866V6.23886C10.207 6.07314 9.36375 6.16042 8.60292 6.48893C7.84209 6.81743 7.2003 7.37137 6.76413 8.07602C6.32795 8.78067 6.11837 9.60214 6.16365 10.4296C6.20893 11.2571 6.50689 12.0508 7.01734 12.7037C5.87413 12.8828 4.83257 13.4646 4.08061 14.3441C3.32864 15.2236 2.91577 16.343 2.9165 17.5001C2.9165 19.218 3.80755 20.7245 5.15213 21.601C4.52505 22.7253 4.31942 24.1472 4.81088 25.6609ZM27.9823 12.7037C28.4928 12.0508 28.7908 11.2571 28.836 10.4296C28.8813 9.60214 28.6717 8.78067 28.2355 8.07602C27.7994 7.37137 27.1576 6.81743 26.3968 6.48893C25.6359 6.16042 24.7927 6.07314 23.9807 6.23886V6.15866C23.9807 4.95407 23.3434 3.79324 22.2584 3.27407C21.5918 2.94177 20.8341 2.83873 20.103 2.98095C19.7766 3.05223 19.4847 3.23361 19.2763 3.49464C19.0678 3.75566 18.9555 4.08045 18.9582 4.41449V30.3393C18.9582 30.8716 19.2382 31.3776 19.7107 31.6255C20.2619 31.9157 20.8832 32.0834 21.5496 32.0834C22.4837 32.0832 23.389 31.7605 24.1126 31.1698C24.8361 30.5791 25.3335 29.7567 25.5207 28.8416H25.6023C27.644 28.8416 29.5603 27.602 30.1903 25.6595C30.6817 24.1457 30.4761 22.7239 29.849 21.5995C30.5339 21.1569 31.0972 20.55 31.4875 19.834C31.8777 19.1179 32.0825 18.3156 32.0832 17.5001C32.0839 16.343 31.671 15.2236 30.9191 14.3441C30.1671 13.4646 29.1255 12.8828 27.9823 12.7037Z" fill="white"/>
</svg>
