<svg width="32" height="32" viewBox="0 0 32 32" fill="none" xmlns="http://www.w3.org/2000/svg">
<path d="M26.6665 5.3335H5.33317C4.62593 5.3335 3.94765 5.61445 3.44755 6.11454C2.94746 6.61464 2.6665 7.29292 2.6665 8.00016V24.0002C2.6665 24.7074 2.94746 25.3857 3.44755 25.8858C3.94765 26.3859 4.62593 26.6668 5.33317 26.6668H26.6665C27.3737 26.6668 28.052 26.3859 28.5521 25.8858C29.0522 25.3857 29.3332 24.7074 29.3332 24.0002V8.00016C29.3332 7.29292 29.0522 6.61464 28.5521 6.11454C28.052 5.61445 27.3737 5.3335 26.6665 5.3335V5.3335ZM26.6665 11.6002L15.9998 18.7122L5.33317 11.6002V8.39616L15.9998 15.5068L26.6665 8.39616V11.6002Z" fill="#FF6A45"/>
</svg>
