<svg width="35" height="35" viewBox="0 0 35 35" fill="none" xmlns="http://www.w3.org/2000/svg">
<path d="M26.979 13.8689C25.8853 13.4922 24.92 12.8149 24.1936 11.9147C23.393 10.9117 22.3737 10.1051 21.2135 9.55661C20.0533 9.00811 18.783 8.73225 17.4998 8.75012C15.7737 8.62787 14.0649 9.16027 12.7136 10.2413C11.3623 11.3223 10.4678 12.8726 10.2082 14.5835C10.7196 13.7278 11.4892 13.0564 12.4065 12.6659C13.3237 12.2754 14.3411 12.186 15.3123 12.4105C16.4042 12.7982 17.368 13.4794 18.0978 14.3793C18.9027 15.3743 19.924 16.1725 21.0839 16.7133C22.2439 17.2541 23.5119 17.5232 24.7915 17.5001C26.5176 17.6224 28.2265 17.09 29.5777 16.009C30.929 14.928 31.8235 13.3777 32.0832 11.6668C31.5811 12.5327 30.8138 13.2142 29.8947 13.6107C28.9757 14.0073 27.9534 14.0978 26.979 13.8689ZM8.02067 21.1314C9.11434 21.508 10.0797 22.1853 10.8061 23.0855C11.6066 24.0885 12.626 24.8951 13.7862 25.4436C14.9464 25.9921 16.2167 26.268 17.4998 26.2501C19.226 26.3724 20.9348 25.84 22.2861 24.759C23.6373 23.678 24.5319 22.1277 24.7915 20.4168C24.2801 21.2725 23.5104 21.9439 22.5932 22.3343C21.676 22.7248 20.6586 22.8142 19.6873 22.5897C18.5955 22.2021 17.6317 21.5208 16.9019 20.621C16.0948 19.6284 15.0731 18.8319 13.9137 18.2914C12.7542 17.7508 11.4873 17.4803 10.2082 17.5001C8.48204 17.3779 6.77319 17.9103 5.42193 18.9913C4.07067 20.0723 3.17615 21.6226 2.9165 23.3335C3.41862 22.4675 4.18585 21.786 5.10493 21.3895C6.02401 20.993 7.04623 20.9025 8.02067 21.1314Z" fill="#DEDEDE"/>
</svg>
