<svg width="470" height="465" viewBox="0 0 470 465" fill="none" xmlns="http://www.w3.org/2000/svg">
<mask id="mask0_23_122" style="mask-type:alpha" maskUnits="userSpaceOnUse" x="0" y="0" width="470" height="454">
<path d="M470 0H0V337.388H84.224C102.263 404.264 162.925 453.45 235 453.45C307.075 453.45 367.737 404.264 385.776 337.388H470V0Z" fill="white"/>
</mask>
<g mask="url(#mask0_23_122)">
<path d="M235 452.131C321.293 452.131 391.248 382.222 391.248 295.984C391.248 209.747 321.293 139.837 235 139.837C148.707 139.837 78.7524 209.747 78.7524 295.984C78.7524 382.222 148.707 452.131 235 452.131Z" fill="#FF6A45"/>
<path d="M286.7 356.369C329.357 356.369 320.54 410.027 320.949 469.697H286.7V356.369Z" fill="#CC734C"/>
<path d="M297.388 390.727L286.7 408.636L292.049 469.697H306.976C307.338 385.025 297.388 390.727 297.388 390.727Z" fill="#B56241"/>
<path d="M109.628 234.849C109.628 165.653 165.76 109.557 235 109.557C304.24 109.557 360.373 165.653 360.373 234.849C360.39 253.493 356.236 271.905 348.214 288.738C340.191 305.57 328.504 320.397 314.007 332.132C311.435 334.224 308.781 336.211 306.045 338.093C277.77 356.03 242.05 356.03 209.803 353.161C206.673 352.691 203.552 352.099 200.455 351.418C188.08 348.694 176.1 344.49 165.031 338.36C162.296 336.676 159.643 334.856 157.074 332.902C154.492 330.937 152.013 328.84 149.648 326.618C147.411 324.542 145.25 322.384 143.167 320.146C121.574 296.989 109.586 266.501 109.628 234.849V234.849Z" fill="#CC734C"/>
<path d="M126.717 298.013C127.046 298.577 127.37 299.141 127.709 299.695C127.911 300.033 128.122 300.362 128.334 300.7C128.644 301.203 128.954 301.705 129.274 302.199C129.499 302.555 129.744 302.903 129.96 303.251C130.27 303.72 130.58 304.19 130.9 304.66C131.14 305.017 131.37 305.374 131.633 305.731C131.943 306.2 132.254 306.632 132.573 307.083C132.827 307.445 133.09 307.802 133.349 308.164C133.607 308.525 133.979 309.033 134.289 309.465C134.599 309.897 134.829 310.183 135.102 310.54C135.374 310.897 135.746 311.386 136.075 311.808C136.404 312.231 136.634 312.518 136.916 312.87C137.198 313.222 137.579 313.697 137.912 314.105C138.246 314.514 138.491 314.805 138.782 315.153C139.073 315.5 139.459 315.961 139.802 316.36C140.145 316.759 140.399 317.05 140.699 317.393L141.743 318.567C142.048 318.91 142.359 319.244 142.683 319.582C143.087 320.024 143.496 320.46 143.905 320.892L144.474 321.494C145.08 322.123 145.691 322.752 146.311 323.372L146.434 323.499C147.04 324.1 147.656 324.697 148.271 325.289L149.014 325.993C149.46 326.411 149.907 326.829 150.358 327.243L150.903 327.741C151.373 328.182 151.885 328.614 152.379 329.046C153.914 330.383 155.481 331.666 157.079 332.893C159.645 334.847 162.298 336.666 165.036 338.351C176.105 344.457 188.066 348.684 200.46 351.409C203.557 352.09 206.678 352.677 209.808 353.151C229.595 354.913 250.698 355.584 270.57 351.705C238.972 342.409 87.2276 287.802 182.736 120.938C181.458 121.525 180.198 122.131 178.948 122.76L178.671 122.896C178.097 123.183 177.524 123.479 176.955 123.779L176.485 124.028C174.718 124.968 172.97 125.94 171.254 126.955L170.831 127.203C170.286 127.528 169.746 127.856 169.205 128.19L168.796 128.443C167.117 129.492 165.464 130.577 163.838 131.699L163.33 132.051C162.818 132.408 162.315 132.765 161.812 133.126L161.502 133.347C160.477 134.096 159.465 134.853 158.466 135.62L158.174 135.846C157.704 136.212 157.234 136.588 156.764 136.968L156.214 137.41C155.744 137.79 155.274 138.171 154.804 138.561C153.812 139.383 152.835 140.228 151.871 141.083L151.336 141.553L150.071 142.703L149.46 143.258C148.119 144.51 146.808 145.789 145.526 147.095L144.878 147.757C144.507 148.143 144.135 148.528 143.769 148.918C143.552 149.148 143.336 149.387 143.125 149.613C142.479 150.302 141.843 151 141.216 151.708C141.005 151.947 140.789 152.177 140.577 152.431C140.244 152.811 139.915 153.197 139.586 153.582L138.876 154.422C138.556 154.803 138.237 155.183 137.936 155.568C137.682 155.878 137.428 156.193 137.179 156.508C136.676 157.133 136.183 157.757 135.694 158.387C135.44 158.715 135.186 159.044 134.937 159.378C134.688 159.711 134.373 160.125 134.096 160.505C133.819 160.885 133.593 161.186 133.349 161.529C133.104 161.872 132.818 162.257 132.559 162.623C132.114 163.25 131.675 163.884 131.243 164.526C131.008 164.868 130.773 165.221 130.543 165.568C130.313 165.916 130.026 166.348 129.772 166.743L129.072 167.828L128.282 169.1C128.08 169.425 127.878 169.749 127.681 170.073C127.262 170.758 126.858 171.449 126.454 172.139L125.88 173.154C125.627 173.6 125.373 174.051 125.124 174.502C124.936 174.845 124.748 175.188 124.564 175.531C124.264 176.09 123.968 176.653 123.671 177.217L123.107 178.316C122.807 178.917 122.506 179.514 122.21 180.12C122.055 180.444 121.895 180.772 121.74 181.101C121.495 181.613 121.27 182.13 121.021 182.647C120.875 182.957 120.734 183.267 120.593 183.586C120.245 184.359 119.905 185.142 119.573 185.934C119.47 186.179 119.371 186.428 119.267 186.672C119.018 187.268 118.774 187.865 118.534 188.466C118.407 188.781 118.285 189.095 118.163 189.405C117.928 189.997 117.693 190.594 117.482 191.19C117.383 191.449 117.284 191.707 117.19 191.965C116.896 192.789 116.606 193.612 116.321 194.436L116.057 195.234C115.851 195.861 115.649 196.487 115.451 197.113L115.169 198.01C114.948 198.734 114.732 199.457 114.525 200.185C114.478 200.34 114.431 200.495 114.389 200.655C114.145 201.519 113.91 202.386 113.684 203.257C113.609 203.534 113.543 203.816 113.472 204.093C113.308 204.746 113.148 205.399 113.002 206.056L112.805 206.878C112.603 207.771 112.406 208.663 112.222 209.56L112.152 209.922C111.992 210.72 111.835 211.519 111.682 212.317C111.63 212.604 111.583 212.886 111.531 213.172C111.409 213.872 111.292 214.581 111.184 215.286C111.146 215.525 111.104 215.755 111.071 216C110.93 216.916 110.803 217.836 110.681 218.762L110.61 219.372C110.516 220.119 110.431 220.87 110.352 221.622C110.323 221.904 110.291 222.186 110.262 222.472C110.187 223.261 110.117 224.055 110.051 224.849C110.051 225.013 110.023 225.173 110.013 225.318C109.944 226.258 109.883 227.205 109.83 228.16C109.83 228.409 109.83 228.663 109.797 228.912C109.766 229.651 109.737 230.388 109.712 231.124C109.712 231.401 109.712 231.678 109.712 231.955C109.712 232.918 109.675 233.886 109.675 234.853C109.675 234.853 109.675 234.886 109.675 234.9C109.675 235.943 109.675 236.976 109.712 238.01C109.712 238.367 109.741 238.724 109.75 239.081C109.773 239.771 109.797 240.462 109.83 241.152C109.83 241.57 109.882 241.983 109.905 242.401C109.943 243.026 109.976 243.651 110.023 244.28C110.056 244.75 110.098 245.168 110.135 245.609C110.187 246.201 110.234 246.793 110.295 247.38C110.338 247.85 110.394 248.291 110.441 248.747C110.507 249.315 110.568 249.888 110.638 250.457C110.695 250.926 110.76 251.396 110.822 251.842C110.897 252.397 110.972 252.955 111.057 253.51C111.127 253.979 111.202 254.449 111.277 254.919C111.362 255.464 111.451 256.013 111.545 256.558C111.63 257.028 111.715 257.497 111.804 257.967C111.903 258.507 112.006 259.047 112.109 259.583C112.213 260.118 112.302 260.522 112.401 260.992C112.514 261.527 112.626 262.058 112.749 262.589C112.871 263.12 112.955 263.528 113.068 263.965C113.19 264.496 113.322 265.022 113.454 265.543C113.585 266.065 113.684 266.459 113.801 266.91C113.942 267.436 114.083 267.958 114.229 268.479C114.351 268.949 114.478 269.381 114.61 269.827C114.76 270.348 114.915 270.865 115.08 271.382C115.244 271.898 115.352 272.269 115.493 272.716C115.634 273.162 115.822 273.744 115.992 274.256C116.161 274.768 116.283 275.135 116.433 275.571C116.612 276.083 116.791 276.595 116.974 277.107C117.129 277.535 117.279 277.967 117.444 278.394L118.027 279.93C118.191 280.348 118.351 280.771 118.497 281.189C118.703 281.701 118.915 282.218 119.127 282.73C119.296 283.133 119.46 283.542 119.634 283.946C119.855 284.472 120.104 284.989 120.316 285.51C120.49 285.895 120.659 286.285 120.833 286.67C121.077 287.215 121.336 287.751 121.585 288.286L122.092 289.366C122.379 289.958 122.675 290.541 122.971 291.128C123.122 291.424 123.263 291.724 123.418 292.02C124.32 293.777 125.26 295.51 126.238 297.22C126.374 297.44 126.548 297.727 126.717 298.013Z" fill="#B56241"/>
<path d="M109.628 234.849C109.628 165.653 165.76 109.557 235 109.557C304.24 109.557 360.373 165.653 360.373 234.849C360.39 253.493 356.236 271.905 348.214 288.738C340.191 305.57 328.504 320.397 314.007 332.132C311.435 334.224 308.781 336.211 306.045 338.093C277.77 356.03 242.05 356.03 209.803 353.161C206.673 352.691 203.552 352.099 200.455 351.418C188.08 348.694 176.1 344.49 165.031 338.36C162.296 336.676 159.643 334.856 157.074 332.902C154.492 330.937 152.013 328.84 149.648 326.618C147.411 324.542 145.25 322.384 143.167 320.146C121.574 296.989 109.586 266.501 109.628 234.849V234.849Z" stroke="#592D3D" stroke-width="12" stroke-miterlimit="10"/>
<path d="M181.477 356.369C138.815 356.369 147.637 410.027 147.228 469.697H181.477V356.369Z" fill="#CC734C"/>
<path d="M172.598 390.727L183.3 408.636L177.947 469.697H163.034C162.653 385.025 172.598 390.727 172.598 390.727Z" fill="#B56241"/>
<path d="M291.151 502.576H178.849C177.195 502.575 175.608 501.917 174.439 500.747C173.269 499.578 172.612 497.992 172.612 496.338V362.606C172.612 360.953 173.269 359.367 174.439 358.197C175.608 357.028 177.195 356.37 178.849 356.369H288.467C294.62 356.369 297.397 359.967 297.397 365.706V496.32C297.4 497.141 297.24 497.954 296.927 498.713C296.614 499.473 296.155 500.163 295.574 500.744C294.994 501.325 294.304 501.786 293.545 502.101C292.786 502.415 291.973 502.577 291.151 502.576V502.576Z" fill="#CC734C"/>
<path d="M295.654 360.079C295.185 359.504 294.789 358.873 294.474 358.2C293.345 357.317 292.003 356.748 290.582 356.552C289.883 356.444 289.175 356.39 288.467 356.392H178.849C177.199 356.393 175.616 357.048 174.447 358.212C173.278 359.377 172.619 360.957 172.612 362.606C186.242 367.5 211.759 370.234 235 370.234C264.638 370.234 284.059 365.842 295.654 360.079Z" fill="#B56241"/>
<path d="M286.7 356.369C329.357 356.369 320.54 410.027 320.949 469.697H297.388" stroke="#592D3D" stroke-width="12" stroke-miterlimit="10" stroke-linecap="square"/>
<path d="M181.477 356.369C138.815 356.369 147.637 410.027 147.228 469.697H170.761" stroke="#592D3D" stroke-width="12" stroke-miterlimit="10" stroke-linecap="square"/>
<path d="M178.849 356.416L288.467 356.369" stroke="#592D3D" stroke-width="12" stroke-miterlimit="10"/>
<path d="M178.849 502.576H233.661C182.36 502.576 186.233 393.991 172.612 393.991V496.319C172.61 497.14 172.769 497.952 173.082 498.711C173.394 499.47 173.853 500.159 174.432 500.74C175.011 501.322 175.7 501.783 176.458 502.098C177.216 502.413 178.028 502.575 178.849 502.576V502.576Z" fill="#B56241"/>
<path d="M169.792 404.339C169.703 402.615 169.741 400.891 169.816 399.172C169.891 397.453 170.037 395.72 170.22 394.005C170.314 393.141 170.408 392.282 170.525 391.417C170.643 390.553 170.756 389.694 170.925 388.829C171.258 387.041 171.826 385.303 172.612 383.663C173.399 385.303 173.966 387.041 174.3 388.829C174.469 389.694 174.591 390.553 174.699 391.417C174.807 392.282 174.911 393.141 175.005 394.005C175.183 395.729 175.324 397.453 175.404 399.172C175.484 400.891 175.522 402.62 175.432 404.339H169.792Z" fill="#592D3D"/>
<path d="M297.388 408.636V412.394C297.51 428.364 297.51 444.803 297.388 460.655C297.388 462.003 297.388 463.342 297.388 464.662V496.324C297.39 497.144 297.23 497.956 296.918 498.714C296.605 499.472 296.146 500.162 295.567 500.742C294.987 501.323 294.299 501.784 293.542 502.098C292.784 502.413 291.972 502.575 291.151 502.576H178.849C177.195 502.575 175.609 501.917 174.439 500.747C173.269 499.578 172.613 497.992 172.613 496.338V469.002C172.613 467.823 172.613 466.62 172.613 465.409C172.495 449.03 172.495 432.591 172.613 415.95V404.339" stroke="#592D3D" stroke-width="12" stroke-miterlimit="10"/>
<path d="M294.568 408.636C294.479 406.678 294.521 404.714 294.596 402.751C294.671 400.788 294.817 398.829 294.996 396.866C295.09 395.884 295.188 394.902 295.301 393.921C295.414 392.939 295.531 391.962 295.701 390.981C296.028 388.959 296.594 386.983 297.388 385.095C298.181 386.983 298.748 388.959 299.075 390.981C299.244 391.962 299.367 392.944 299.475 393.921C299.583 394.898 299.686 395.884 299.78 396.866C299.959 398.829 300.104 400.788 300.18 402.751C300.255 404.714 300.297 406.678 300.208 408.636H294.568Z" fill="#592D3D"/>
<path d="M268.22 395.696C268.323 391.258 273.963 389.379 276.783 392.197C277.241 392.665 277.603 393.218 277.847 393.825C278.092 394.432 278.214 395.082 278.207 395.736C278.201 396.39 278.065 397.037 277.808 397.639C277.551 398.241 277.178 398.787 276.71 399.245C276.242 399.703 275.689 400.064 275.081 400.308C274.474 400.553 273.824 400.675 273.169 400.668C272.514 400.661 271.867 400.526 271.265 400.269C270.662 400.012 270.116 399.64 269.658 399.172C269.2 398.716 268.838 398.175 268.591 397.578C268.344 396.981 268.218 396.342 268.22 395.696V395.696Z" fill="#592D3D"/>
<path d="M191.812 395.555C191.713 391.727 195.943 389.848 198.763 391.258C202.523 392.667 202.523 397.833 198.763 400.182C196.883 401.121 195.003 400.182 193.241 399.017C192.786 398.562 192.426 398.023 192.181 397.429C191.936 396.834 191.81 396.198 191.812 395.555V395.555Z" fill="#592D3D"/>
<path d="M235 390.68C235.336 391.565 235.573 392.485 235.705 393.423C235.845 394.331 235.922 395.247 235.935 396.166L236.076 401.657C236.119 403.484 236.175 405.316 236.194 407.148L236.274 412.629C236.382 419.942 236.377 427.265 236.405 434.582C236.434 441.9 236.49 449.218 236.405 456.536C236.363 460.195 236.264 463.854 236.156 467.513C236.109 469.34 236.02 471.172 235.841 472.999C235.682 474.845 235.404 476.679 235.009 478.49C234.615 476.679 234.337 474.845 234.178 472.999C233.999 471.172 233.91 469.34 233.863 467.513C233.755 463.854 233.656 460.195 233.614 456.536C233.52 449.218 233.614 441.9 233.614 434.582C233.614 427.265 233.614 419.951 233.698 412.634L233.778 407.138L233.933 401.652L234.088 396.166C234.106 395.247 234.184 394.331 234.323 393.423C234.446 392.486 234.673 391.566 235 390.68V390.68Z" fill="#B56241"/>
<path d="M199.854 414.743C200.551 414.411 201.289 414.175 202.048 414.038C202.774 413.902 203.51 413.823 204.248 413.803L208.643 413.648L217.432 413.456C223.288 413.366 229.139 413.343 235 413.329C240.861 413.315 246.717 413.254 252.573 413.329C255.502 413.371 258.43 413.47 261.362 413.578C262.824 413.629 264.291 413.719 265.752 413.892C267.237 414.057 268.706 414.336 270.147 414.728C268.707 415.123 267.237 415.401 265.752 415.56C264.291 415.738 262.824 415.828 261.362 415.874C258.43 415.983 255.502 416.076 252.573 416.119C246.717 416.208 240.861 416.119 235 416.119C229.139 416.119 223.283 416.119 217.422 416.048C214.494 416.02 211.566 415.926 208.643 415.813L204.248 415.654C203.511 415.634 202.777 415.555 202.053 415.419C201.293 415.292 200.553 415.065 199.854 414.743V414.743Z" fill="#B56241"/>
<path d="M207.933 429.481C208.488 429.217 209.081 429.041 209.691 428.96C210.254 428.881 210.824 428.857 211.392 428.89C212.516 428.937 213.639 428.965 214.762 428.988C217.009 429.04 219.255 429.059 221.502 429.068C226.028 429.068 230.474 429.106 235.019 428.97C239.564 428.833 244.071 428.768 248.593 428.786C250.853 428.786 253.114 428.847 255.37 428.899C256.506 428.914 257.64 428.988 258.768 429.12C259.928 429.248 261.072 429.488 262.185 429.838C261.098 430.265 259.971 430.58 258.82 430.778C257.699 430.98 256.568 431.114 255.431 431.182C253.166 431.346 250.901 431.487 248.64 431.567C244.109 431.736 239.583 431.717 235.066 431.778C232.806 431.778 230.55 431.882 228.261 431.825C225.972 431.769 223.706 431.764 221.436 431.68C219.166 431.595 216.887 431.407 214.621 431.172C213.484 431.046 212.356 430.905 211.223 430.75C210.651 430.68 210.088 430.547 209.545 430.355C208.962 430.158 208.417 429.862 207.933 429.481V429.481Z" fill="#B56241"/>
<path d="M206.297 446.151C206.855 445.823 207.461 445.585 208.093 445.447C208.682 445.31 209.283 445.233 209.888 445.216L213.474 445.066C215.867 444.982 218.264 444.911 220.656 444.874C225.44 444.803 230.225 444.803 235 444.803C239.775 444.803 244.569 444.723 249.354 444.803C251.746 444.845 254.139 444.944 256.531 445.052C257.731 445.092 258.928 445.196 260.117 445.362C261.342 445.53 262.547 445.815 263.717 446.212C262.551 446.602 261.35 446.881 260.131 447.044C258.941 447.214 257.742 447.319 256.54 447.358C254.148 447.466 251.756 447.565 249.363 447.607C244.579 447.701 239.79 447.635 235.005 447.607C230.22 447.579 225.436 447.579 220.651 447.49C218.259 447.443 215.862 447.358 213.47 447.26L209.883 447.086C209.279 447.067 208.677 446.989 208.088 446.851C207.458 446.715 206.853 446.478 206.297 446.151V446.151Z" fill="#B56241"/>
<path d="M318.566 425.71C318.665 408.279 317.997 392.798 314.933 380.905C310.2 368.994 301.688 361.892 286.7 361.892L297.411 425.076C297.411 425.076 307.996 429.885 318.566 425.71Z" fill="#B56241"/>
<path d="M322.613 420.75C322.077 421.193 321.494 421.575 320.874 421.891" stroke="#592D3D" stroke-width="12" stroke-miterlimit="10" stroke-linecap="square"/>
<path d="M153.272 380.398C150.062 392.408 149.512 408.171 149.634 425.959C158.987 429.97 173.331 424.949 173.331 424.949L181.477 362.836C166.968 362.822 158.32 369.351 153.272 380.398Z" fill="#B56241"/>
<path d="M288.467 356.369H262.989V356.416C262.989 358.53 262.762 360.639 262.312 362.705C262.093 363.71 261.82 364.702 261.494 365.678C260.454 368.592 258.858 371.277 256.794 373.583C256.135 374.322 255.429 375.017 254.679 375.664C242.849 384.212 224.049 384.682 212.623 375.391C211.392 374.317 210.273 373.121 209.282 371.822C207.224 369.121 205.766 366.013 205.005 362.705C204.782 361.683 204.614 360.65 204.502 359.61C204.384 358.549 204.326 357.483 204.328 356.416V356.369H178.849C177.195 356.37 175.608 357.028 174.439 358.197C173.269 359.367 172.612 360.953 172.612 362.606V496.32C172.61 497.14 172.769 497.953 173.082 498.711C173.394 499.47 173.853 500.16 174.432 500.741C175.011 501.322 175.7 501.783 176.458 502.098C177.216 502.413 178.028 502.575 178.849 502.576H291.151C292.806 502.575 294.392 501.917 295.561 500.747C296.731 499.578 297.388 497.992 297.388 496.338V365.706C297.388 359.967 294.62 356.369 288.467 356.369Z" fill="#D67070"/>
<path d="M286.7 356.369C316.564 356.369 321.198 382.672 321.433 418.918C312.691 424.376 298.445 419.534 298.445 419.534L286.7 356.369Z" fill="#D67070"/>
<path d="M297.388 390.727L286.7 408.636L292.049 469.697H297.505V420.073L305.627 421.431C302.962 387.533 297.388 390.727 297.388 390.727Z" fill="#C46565"/>
<path d="M181.476 356.369C152.44 356.369 145.836 381.638 145.357 416.33C154.287 425.658 172.617 418.481 172.617 418.481L181.476 356.369Z" fill="#D67070"/>
<path d="M172.598 390.727V418.5L164.462 420.524C167.127 387.589 172.598 390.727 172.598 390.727Z" fill="#C46565"/>
<path d="M286.7 356.369C318.383 356.369 323.572 382.808 323.783 419.205C311.469 425.043 298.445 419.534 298.445 419.534" stroke="#592D3D" stroke-width="12" stroke-miterlimit="10" stroke-linecap="square"/>
<path d="M181.477 356.369C150.085 356.369 143.839 382.061 143.52 417.767C153.22 424.71 172.594 418.5 172.594 418.5" stroke="#592D3D" stroke-width="12" stroke-miterlimit="10" stroke-linecap="square"/>
<path d="M178.849 502.576H233.661C182.36 502.576 186.233 393.991 172.612 393.991V496.319C172.61 497.14 172.769 497.952 173.082 498.711C173.394 499.47 173.853 500.159 174.432 500.74C175.011 501.322 175.7 501.783 176.458 502.098C177.216 502.413 178.028 502.575 178.849 502.576V502.576Z" fill="#C46565"/>
<path d="M169.792 404.339C169.703 402.615 169.741 400.891 169.816 399.172C169.891 397.453 170.037 395.72 170.22 394.005C170.314 393.141 170.408 392.282 170.525 391.417C170.643 390.553 170.756 389.694 170.925 388.829C171.258 387.041 171.826 385.303 172.612 383.663C173.4 385.303 173.965 387.04 174.295 388.829C174.469 389.694 174.591 390.553 174.699 391.417C174.807 392.282 174.911 393.141 175.005 394.005C175.183 395.729 175.324 397.453 175.404 399.172C175.484 400.891 175.522 402.62 175.432 404.339H169.792Z" fill="#592D3D"/>
<path d="M297.388 408.636V412.394C297.51 428.364 297.51 444.803 297.388 460.655C297.388 462.003 297.388 463.342 297.388 464.662V496.324C297.39 497.144 297.23 497.956 296.918 498.714C296.605 499.472 296.146 500.162 295.567 500.742C294.987 501.323 294.299 501.784 293.542 502.098C292.784 502.413 291.972 502.575 291.151 502.576H178.849C177.195 502.575 175.609 501.917 174.439 500.747C173.269 499.578 172.613 497.992 172.613 496.338V469.002C172.613 467.823 172.613 466.62 172.613 465.409C172.495 449.03 172.495 432.591 172.613 415.95V404.339" stroke="#592D3D" stroke-width="12" stroke-miterlimit="10"/>
<path d="M294.568 408.636C294.479 406.678 294.521 404.714 294.596 402.751C294.671 400.788 294.817 398.829 294.996 396.866C295.09 395.884 295.188 394.902 295.301 393.921C295.414 392.939 295.531 391.962 295.705 390.981C296.029 388.959 296.594 386.983 297.388 385.095C298.181 386.983 298.748 388.959 299.075 390.981C299.244 391.962 299.367 392.944 299.475 393.921C299.583 394.898 299.686 395.884 299.78 396.866C299.959 398.829 300.104 400.788 300.18 402.751C300.255 404.714 300.297 406.678 300.208 408.636H294.568Z" fill="#592D3D"/>
<path d="M178.849 356.416L288.467 356.369" stroke="#592D3D" stroke-width="12" stroke-miterlimit="10"/>
<path d="M262.989 356.416C262.99 358.53 262.763 360.639 262.312 362.705C262.093 363.71 261.82 364.702 261.494 365.678C260.454 368.592 258.858 371.277 256.794 373.583C256.136 374.322 255.429 375.017 254.679 375.664C242.849 384.212 224.049 384.682 212.624 375.391C211.393 374.317 210.273 373.121 209.282 371.822C207.224 369.121 205.766 366.013 205.005 362.705C204.782 361.683 204.614 360.649 204.502 359.609C204.385 358.549 204.327 357.483 204.328 356.416" stroke="#592D3D" stroke-width="12" stroke-miterlimit="10"/>
<path d="M236.598 389.092C233.755 389.664 230.846 389.838 227.955 389.609C225.038 389.404 222.161 388.81 219.401 387.843C216.625 386.892 214.01 385.523 211.646 383.785L210.772 383.123C210.485 382.897 210.208 382.653 209.931 382.409C209.372 381.934 208.849 381.419 208.366 380.868C207.401 379.784 206.553 378.602 205.837 377.341C206.843 378.348 207.9 379.303 209.005 380.201C209.277 380.426 209.555 380.647 209.827 380.859C210.1 381.07 210.405 381.244 210.692 381.441C210.979 381.638 211.265 381.836 211.562 382.019L212.459 382.564C214.857 383.983 217.392 385.157 220.026 386.068C222.665 386.99 225.377 387.689 228.134 388.158C230.937 388.616 233.762 388.928 236.598 389.092V389.092Z" fill="#592D3D"/>
<path d="M144.68 419.205C145.215 419.692 145.794 420.127 146.41 420.506" stroke="#592D3D" stroke-width="12" stroke-miterlimit="10" stroke-linecap="square"/>
<path d="M317.109 414.597C316.131 415.182 315.054 415.583 313.932 415.781C312.818 415.999 311.684 416.102 310.548 416.086C309.414 416.064 308.285 415.94 307.173 415.715C306.619 415.616 306.078 415.452 305.533 415.306C304.988 415.161 304.466 414.945 303.949 414.724C304.518 414.724 305.068 414.808 305.622 414.855L307.277 414.991C307.827 414.991 308.372 415.085 308.922 415.09C309.472 415.095 310.012 415.142 310.557 415.146C311.654 415.165 312.751 415.136 313.847 415.057C314.944 414.981 316.034 414.827 317.109 414.597V414.597Z" fill="#592D3D"/>
<path d="M243.366 407.049L236.598 418.763L229.83 407.049H207.27L236.579 457.776L265.888 407.049H243.366Z" stroke="white" stroke-width="16"/>
<path d="M243.366 407.049L236.598 418.763L229.83 407.049H207.27L236.579 457.776L265.888 407.049H243.366Z" fill="#44B783"/>
<path d="M243.366 407.049L236.598 418.763L229.83 407.049H219.02L236.607 437.49L254.195 407.049H243.366Z" fill="#364A5E"/>
<path d="M139.351 268.953V262.88C138.617 258.904 138.931 254.805 140.262 250.987C140.701 249.742 141.253 248.539 141.912 247.394C143.487 243.303 147.717 240.015 151.947 238.606C158.527 236.727 166.517 237.667 171.687 242.833C178.267 249.879 177.327 260.212 177.538 268.958" stroke="#592D3D" stroke-width="12" stroke-miterlimit="10" stroke-linecap="round"/>
<path d="M292.956 269.136C291.856 256.633 293.736 239.254 309.937 237.587C311.207 237.472 312.484 237.472 313.754 237.587C317.577 237.919 321.231 239.315 324.3 241.617C332.76 248.662 330.88 259.935 330.857 269.155" stroke="#592D3D" stroke-width="12" stroke-miterlimit="10" stroke-linecap="round"/>
<path d="M208.276 292.086C208.276 283.209 261.724 284.542 261.724 292.086C261.724 299.169 258.909 305.962 253.897 310.971C248.885 315.979 242.088 318.793 235 318.793C227.912 318.793 221.115 315.979 216.103 310.971C211.091 305.962 208.276 299.169 208.276 292.086V292.086Z" fill="#592D3D"/>
<path d="M232.65 302.015C224.684 301.546 217.737 305.186 215.425 310.573C219.27 314.633 224.292 317.384 229.785 318.44C235.277 319.496 240.963 318.803 246.041 316.459C247.097 315.972 248.119 315.415 249.1 314.791C248.668 308.164 241.608 302.57 232.65 302.015Z" fill="#F28195"/>
<path d="M208.276 292.086C208.276 283.209 261.724 284.542 261.724 292.086C261.724 299.169 258.909 305.962 253.897 310.971C248.885 315.979 242.088 318.793 235 318.793C227.912 318.793 221.115 315.979 216.103 310.971C211.091 305.962 208.276 299.169 208.276 292.086V292.086Z" stroke="#592D3D" stroke-width="6" stroke-miterlimit="10"/>
<path d="M224.717 297.065C224.928 297.013 225.013 296.99 225.149 296.966L225.502 296.9C225.732 296.858 225.972 296.835 226.188 296.816C226.639 296.77 227.093 296.754 227.546 296.769C228.465 296.789 229.378 296.917 230.267 297.149C232.129 297.621 233.818 298.615 235.132 300.014C236.369 301.344 237.197 303 237.52 304.787C237.813 306.434 237.59 308.132 236.88 309.648C235.907 308.272 235.16 307.036 234.38 306.003C234.029 305.508 233.644 305.037 233.229 304.594C232.849 304.205 232.423 303.864 231.959 303.579C231.082 303.054 230.103 302.72 229.088 302.598C228.555 302.529 228.018 302.491 227.48 302.485C227.203 302.485 226.926 302.485 226.653 302.508L226.254 302.537H226.07C226.023 302.537 225.929 302.537 225.962 302.537L224.717 297.065Z" fill="#592D3D"/>
<path d="M235 109.557C171.221 109.557 118.567 157.151 110.657 218.738C124.63 205.596 135.84 189.802 143.632 172.28C173.648 178.828 204.278 182.158 235 182.214C265.727 182.231 296.364 178.9 326.368 172.28C334.161 189.802 345.371 205.596 359.344 218.738C351.434 157.151 298.779 109.557 235 109.557Z" fill="#592D3D"/>
<path d="M143.632 172.28C148.627 173.361 153.651 174.355 158.705 175.263C163.692 158.636 171.503 140.562 182.736 120.938C182.111 121.229 181.486 121.52 180.856 121.816L180.776 121.854C180.161 122.15 179.545 122.45 178.934 122.76L178.657 122.896C178.083 123.183 177.51 123.479 176.941 123.779L176.471 124.028C174.704 124.968 172.956 125.94 171.24 126.955L170.864 127.175L170.798 127.218C170.256 127.531 169.72 127.855 169.191 128.19L168.782 128.443C167.102 129.492 165.45 130.577 163.823 131.699L163.316 132.051C162.846 132.384 162.376 132.718 161.906 133.056L161.572 133.3L161.502 133.347C160.477 134.096 159.465 134.853 158.465 135.62L158.174 135.846C157.704 136.212 157.234 136.588 156.764 136.968L156.214 137.41L155.081 138.349L154.715 138.655C153.751 139.458 152.807 140.275 151.867 141.107L151.331 141.576L150.067 142.727L149.46 143.258C148.119 144.51 146.808 145.789 145.526 147.095L145.056 147.565C144.953 147.668 144.854 147.772 144.756 147.88C144.427 148.218 144.102 148.556 143.778 148.899C143.562 149.129 143.346 149.368 143.134 149.594C142.489 150.283 141.853 150.981 141.226 151.689L141 151.947C140.855 152.112 140.704 152.276 140.558 152.445L139.59 153.591C139.539 153.657 139.487 153.718 139.43 153.779L138.866 154.451C138.58 154.789 138.298 155.132 138.016 155.475C137.832 155.695 137.649 155.944 137.466 156.151L137.156 156.536C136.657 157.162 136.167 157.789 135.685 158.415L135.652 158.457C135.403 158.777 135.158 159.096 134.914 159.42C134.726 159.664 134.542 159.913 134.364 160.157L133.894 160.782L133.32 161.571L132.85 162.205L132.188 163.145C131.92 163.525 131.657 163.906 131.393 164.291C131.13 164.676 130.872 165.061 130.618 165.446L130.5 165.615L129.786 166.7L128.968 167.978C128.724 168.368 128.498 168.758 128.24 169.147C127.972 169.58 127.704 170.012 127.441 170.449C127.178 170.885 126.971 171.238 126.745 171.632C126.52 172.027 126.313 172.365 126.106 172.731L125.838 173.201L125.307 174.14C125.11 174.502 124.907 174.859 124.715 175.221C124.649 175.338 124.583 175.455 124.522 175.573C124.325 175.939 124.127 176.31 123.935 176.681C123.742 177.052 123.615 177.287 123.465 177.593L123.07 178.358L122.633 179.241C122.449 179.608 122.266 179.969 122.087 180.34L121.702 181.144L121.561 181.449C121.354 181.881 121.152 182.318 120.95 182.755L120.612 183.501C120.419 183.929 120.231 184.361 120.043 184.793L119.573 185.892C119.361 186.395 119.159 186.897 118.953 187.4C118.802 187.762 118.656 188.119 118.511 188.48C118.459 188.602 118.412 188.729 118.365 188.856C118.201 189.269 118.041 189.687 117.895 190.105C117.749 190.523 117.608 190.843 117.472 191.214L117.397 191.416C117.218 191.885 117.049 192.355 116.88 192.853C116.711 193.351 116.579 193.694 116.41 194.117C116.236 194.624 116.067 195.126 115.902 195.634C115.761 196.061 115.62 196.488 115.484 196.916C115.319 197.428 115.164 197.935 115.014 198.447C114.882 198.879 114.755 199.311 114.629 199.748C114.478 200.26 114.328 200.777 114.187 201.294C114.065 201.726 113.947 202.162 113.834 202.599C113.693 203.121 113.557 203.642 113.425 204.168C113.313 204.6 113.209 205.042 113.106 205.479C112.979 206.005 112.852 206.535 112.73 207.061C112.631 207.498 112.537 207.94 112.443 208.377C112.33 208.912 112.213 209.452 112.1 209.992C112.015 210.42 111.935 210.847 111.856 211.279C111.776 211.711 111.672 212.219 111.588 212.688L111.503 213.158L111.348 214.097C111.263 214.609 111.174 215.126 111.094 215.643C111.094 215.741 111.061 215.84 111.047 215.939C110.906 216.878 110.775 217.817 110.652 218.757C124.628 205.61 135.84 189.81 143.632 172.28V172.28Z" fill="#592D3D"/>
<path d="M235 109.557C171.221 109.557 118.567 157.151 110.657 218.738C124.63 205.596 135.84 189.802 143.632 172.28C173.648 178.828 204.278 182.158 235 182.214C265.727 182.231 296.364 178.9 326.368 172.28C334.161 189.802 345.371 205.596 359.344 218.738C351.434 157.151 298.779 109.557 235 109.557Z" stroke="#592D3D" stroke-width="12" stroke-miterlimit="10"/>
<path d="M237.919 117.471C232.011 118.26 226.197 119.059 220.454 120.177C214.71 121.295 209.037 122.61 203.449 124.235C197.861 125.86 192.348 127.748 186.914 129.904C181.481 132.06 176.128 134.474 170.718 136.973C175.33 133.17 180.354 129.896 185.697 127.213C196.419 121.774 208.069 118.397 220.04 117.26C225.989 116.672 231.985 116.743 237.919 117.471V117.471Z" fill="white"/>
<path d="M119.878 244.064L125.988 241.997L140.652 237.047L158.324 231.081L173.595 225.915C176.071 225.079 178.553 224.266 181.021 223.407L181.129 223.374C182.302 223.024 183.306 222.255 183.949 221.213C184.578 220.138 184.754 218.857 184.439 217.652C184.123 216.447 183.342 215.417 182.266 214.788C181.724 214.472 181.124 214.267 180.502 214.186C179.879 214.106 179.247 214.151 178.642 214.318L172.532 216.38L157.868 221.331L140.196 227.3L124.926 232.467C122.449 233.303 119.968 234.12 117.5 234.975L117.392 235.013C116.218 235.362 115.214 236.131 114.572 237.173C113.943 238.249 113.766 239.529 114.082 240.734C114.397 241.939 115.179 242.97 116.255 243.599C116.797 243.915 117.396 244.119 118.019 244.2C118.641 244.281 119.273 244.236 119.878 244.069V244.064Z" fill="#592D3D"/>
<path d="M290.253 223.106L296.236 225.516L310.59 231.298L327.891 238.268L342.842 244.294C345.262 245.266 347.664 246.314 350.113 247.225L350.216 247.263C351.273 247.69 352.9 247.338 353.84 246.793C354.373 246.481 354.839 246.068 355.213 245.576C355.586 245.084 355.858 244.524 356.015 243.926C356.171 243.329 356.208 242.707 356.123 242.096C356.039 241.484 355.835 240.895 355.522 240.363L354.789 239.423C354.214 238.849 353.5 238.433 352.716 238.216L346.733 235.788L332.379 230.001L315.079 223.031L300.128 217C297.708 216.023 295.306 214.976 292.857 214.069L292.754 214.027C291.696 213.599 290.07 213.952 289.13 214.497C288.054 215.126 287.273 216.156 286.957 217.361C286.642 218.566 286.818 219.847 287.447 220.922L288.181 221.861C288.756 222.437 289.47 222.854 290.253 223.073V223.106Z" fill="#592D3D"/>
<path opacity="0.15" d="M340.75 296.764C345.999 288.001 350.151 278.626 353.111 268.85C345.008 285.637 329.686 299.596 309.819 299.596C296.534 299.579 283.798 294.296 274.404 284.907C265.011 275.518 259.727 262.789 259.713 249.513C259.694 243.036 260.944 236.618 263.393 230.621H356.26C358.302 235.619 359.512 240.917 359.841 246.305C360.184 242.547 360.368 238.7 360.368 234.835C360.366 230.284 360.118 225.737 359.625 221.213H270.25H198.876H110.37C109.877 225.737 109.629 230.284 109.627 234.835C109.627 237.056 109.693 239.259 109.806 241.453C110.403 237.738 111.423 234.104 112.847 230.621H205.719C208.807 238.227 209.979 246.475 209.131 254.64C208.283 262.804 205.441 270.635 200.856 277.445C196.27 284.256 190.081 289.836 182.832 293.696C175.583 297.555 167.497 299.577 159.283 299.582C141.047 299.582 126.938 287.45 118.167 272.861C121.124 281.535 125.027 289.858 129.805 297.68C138.918 303.349 147.782 308.976 159.283 308.976C175.059 308.958 190.185 302.687 201.342 291.54C212.499 280.393 218.777 265.279 218.799 249.513C218.799 248.662 218.799 247.817 218.743 246.976C229.731 243.111 240.137 243.054 250.378 246.807C250.341 247.704 250.313 248.606 250.313 249.513C250.331 265.281 256.608 280.399 267.765 291.549C278.922 302.699 294.05 308.972 309.829 308.99C321.95 308.99 331.35 303.002 340.75 296.764ZM251.572 237.282C240.574 233.735 229.181 233.797 217.577 237.465C217.1 235.149 216.483 232.863 215.73 230.621H253.377C252.643 232.803 252.04 235.028 251.572 237.282Z" fill="black"/>
<path opacity="0.95" d="M109.788 220.673C109.788 220.673 109.98 235.811 109.98 244.252C109.98 274.505 129.006 299.033 159.283 299.033C168.539 299.028 177.643 296.683 185.748 292.215C193.852 287.747 200.693 281.302 205.633 273.48C210.573 265.658 213.452 256.714 214.001 247.481C214.551 238.247 212.752 229.025 208.774 220.673H109.788Z" fill="#592D3D"/>
<path opacity="0.95" d="M260.338 220.673C256.36 229.025 254.562 238.247 255.111 247.481C255.66 256.714 258.539 265.658 263.479 273.48C268.419 281.302 275.26 287.747 283.365 292.215C291.469 296.683 300.573 299.028 309.829 299.033C340.106 299.033 360.373 274.505 360.373 244.252C360.373 235.797 359.325 220.673 359.325 220.673H260.338Z" fill="#592D3D"/>
<path opacity="0.25" d="M150.4 294.434L208.243 236.624C206.972 233.76 205.396 231.04 203.543 228.512L142.279 289.747C144.811 291.594 147.534 293.166 150.4 294.434V294.434Z" fill="white"/>
<path d="M214.254 238.385C228.129 232.749 241.763 232.552 255.144 238.385" stroke="#592D3D" stroke-width="20" stroke-miterlimit="10"/>
<path d="M128.912 237.08C129.88 240.137 126.12 242.486 123.3 242.956C120.48 242.956 118.6 241.077 117.66 238.728C117.19 236.38 117.66 234.031 119.54 232.622C121.89 231.683 125.18 230.743 127.267 233.148C127.789 233.661 128.203 234.273 128.486 234.948C128.768 235.623 128.913 236.348 128.912 237.08V237.08Z" fill="white"/>
<path d="M133.95 235.285C133.664 237.319 130.844 237.319 130.374 235.44C130.374 234.031 130.844 233.562 132.178 233.515C132.648 233.515 133.099 233.701 133.431 234.033C133.764 234.365 133.95 234.816 133.95 235.285V235.285Z" fill="white"/>
<path opacity="0.25" d="M303.239 290.705L353.191 240.786C352.921 239.008 352.543 237.248 352.058 235.516L297.98 289.573C299.709 290.056 301.465 290.434 303.239 290.705V290.705Z" fill="white"/>
<path d="M277.62 237.54C278.588 240.598 274.828 242.946 272.008 243.416C269.188 243.416 267.308 241.537 266.368 239.188C265.898 236.84 266.368 234.492 268.248 233.082C270.598 232.143 273.888 231.204 275.979 233.608C276.501 234.122 276.915 234.734 277.196 235.409C277.478 236.084 277.622 236.808 277.62 237.54V237.54Z" fill="white"/>
<path d="M282.635 235.746C282.348 237.779 279.528 237.779 279.058 235.901C279.058 234.492 279.528 234.022 280.868 233.975C281.1 233.975 281.33 234.021 281.545 234.11C281.76 234.199 281.955 234.329 282.119 234.494C282.283 234.658 282.413 234.854 282.502 235.068C282.59 235.283 282.635 235.513 282.635 235.746V235.746Z" fill="white"/>
<path d="M109.788 220.673C109.788 220.673 109.628 235.558 109.98 244.252C111.202 274.482 129.006 299.033 159.283 299.033C168.539 299.028 177.643 296.683 185.747 292.215C193.852 287.747 200.693 281.302 205.633 273.48C210.573 265.658 213.452 256.714 214.001 247.481C214.551 238.247 212.752 229.025 208.774 220.673H109.788Z" stroke="#592D3D" stroke-width="20" stroke-miterlimit="10"/>
<path d="M260.338 220.673C256.36 229.025 254.562 238.247 255.111 247.481C255.66 256.714 258.539 265.658 263.479 273.48C268.419 281.302 275.26 287.747 283.365 292.215C291.469 296.683 300.573 299.028 309.829 299.033C340.106 299.033 360.373 274.829 360.373 244.576C360.373 236.121 359.325 220.673 359.325 220.673H260.338Z" stroke="#592D3D" stroke-width="20" stroke-miterlimit="10"/>
<path d="M198.876 220.668H270.236" stroke="#592D3D" stroke-width="20" stroke-miterlimit="10"/>
</g>
</svg>
