<svg width="35" height="35" viewBox="0 0 35 35" fill="none" xmlns="http://www.w3.org/2000/svg">
<path d="M7.64044 21.967L10.5148 3.4724C10.5359 3.33543 10.5995 3.20857 10.6967 3.10976C10.7939 3.01096 10.9197 2.94521 11.0563 2.92183C11.1929 2.89844 11.3333 2.91861 11.4578 2.97946C11.5823 3.04032 11.6846 3.13879 11.75 3.26094L14.8417 9.06365L7.64044 21.967ZM28.0586 26.4543L25.3213 9.43406C25.3007 9.31495 25.2478 9.20374 25.1685 9.11251C25.0892 9.02129 24.9864 8.95352 24.8713 8.91655C24.7562 8.87959 24.6332 8.87484 24.5156 8.90283C24.398 8.93082 24.2903 8.99047 24.2042 9.07531L6.94189 26.4543L16.494 31.837C17.0934 32.1724 17.824 32.1724 18.4234 31.837L28.0586 26.4543ZM20.2959 11.6011L18.0836 7.36761C18.0276 7.26133 17.9437 7.17235 17.8409 7.11028C17.7381 7.0482 17.6203 7.0154 17.5002 7.0154C17.3801 7.0154 17.2623 7.0482 17.1595 7.11028C17.0567 7.17235 16.9728 7.26133 16.9169 7.36761L7.20294 24.7757L20.2959 11.6011Z" fill="white"/>
</svg>
