<svg width="35" height="35" viewBox="0 0 35 35" fill="none" xmlns="http://www.w3.org/2000/svg">
<path d="M4.375 4.375H30.625V30.625H4.375V4.375ZM28.474 24.3644C28.2829 23.1671 27.5027 22.1608 25.1898 21.2217C24.3848 20.844 23.4908 20.5829 23.2225 19.9763C23.1233 19.6146 23.1088 19.4192 23.1729 19.2048C23.3377 18.499 24.1748 18.2875 24.831 18.4829C25.2583 18.6142 25.6521 18.9423 25.8985 19.4688C27.0288 18.7294 27.0288 18.7294 27.8177 18.2379C27.5217 17.78 27.3744 17.5802 27.1775 17.3833C26.4877 16.6133 25.569 16.2196 24.0771 16.2531L23.3071 16.3508C22.5677 16.5317 21.8619 16.9269 21.436 17.4504C20.1892 18.8621 20.5494 21.3223 22.0588 22.3417C23.5506 23.4573 25.7352 23.7023 26.0138 24.7523C26.2762 26.0327 25.0629 26.4425 23.8627 26.2952C22.9775 26.0969 22.4846 25.655 21.9435 24.834L19.9427 25.9831C20.1717 26.5067 20.4342 26.7371 20.8279 27.1965C22.731 29.1156 27.4896 29.0179 28.3427 26.0969C28.3733 25.9992 28.6052 25.3269 28.4244 24.2929L28.474 24.3644ZM18.6492 16.4398H16.1904C16.1904 18.5588 16.1802 20.666 16.1802 22.7894C16.1802 24.1369 16.2488 25.3735 16.0285 25.7542C15.6683 26.5081 14.7365 26.4119 14.315 26.2777C13.8819 26.0648 13.6617 25.7688 13.4065 25.3429C13.3379 25.2292 13.2869 25.13 13.2679 25.13L11.2729 26.3608C11.6069 27.0506 12.094 27.6427 12.7225 28.019C13.6573 28.5775 14.9129 28.7583 16.2283 28.4638C17.0858 28.2158 17.8252 27.7069 18.2088 26.9194C18.7688 25.9029 18.6492 24.6546 18.6448 23.2604C18.6565 21.0131 18.6448 18.7644 18.6448 16.501L18.6492 16.4398Z" fill="#DEDEDE"/>
</svg>
