<svg width="32" height="32" viewBox="0 0 32 32" fill="none" xmlns="http://www.w3.org/2000/svg">
<path d="M15.9998 21.3332C18.9454 21.3332 21.3332 18.9454 21.3332 15.9998C21.3332 13.0543 18.9454 10.6665 15.9998 10.6665C13.0543 10.6665 10.6665 13.0543 10.6665 15.9998C10.6665 18.9454 13.0543 21.3332 15.9998 21.3332Z" fill="#FF6A45"/>
<path d="M17.3332 5.42517V2.6665H14.6665V5.42517C12.3202 5.72475 10.1398 6.79473 8.46726 8.46726C6.79473 10.1398 5.72475 12.3202 5.42517 14.6665H2.6665V17.3332H5.42517C5.72431 19.6796 6.79415 21.8603 8.46677 23.5329C10.1394 25.2055 12.3201 26.2754 14.6665 26.5745V29.3332H17.3332V26.5745C19.6797 26.2756 21.8605 25.2058 23.5332 23.5332C25.2058 21.8605 26.2756 19.6797 26.5745 17.3332H29.3332V14.6665H26.5745C26.2754 12.3201 25.2055 10.1394 23.5329 8.46677C21.8603 6.79415 19.6796 5.72431 17.3332 5.42517V5.42517ZM15.9998 23.9998C11.5878 23.9998 7.99984 20.4118 7.99984 15.9998C7.99984 11.5878 11.5878 7.99984 15.9998 7.99984C20.4118 7.99984 23.9998 11.5878 23.9998 15.9998C23.9998 20.4118 20.4118 23.9998 15.9998 23.9998Z" fill="#FF6A45"/>
</svg>
