<svg width="17" height="17" viewBox="0 0 17 17" fill="none" xmlns="http://www.w3.org/2000/svg">
<path d="M14.875 14.1667V4.25008C14.875 3.46879 14.2396 2.83341 13.4583 2.83341H12.0417V1.41675H10.625V2.83341H6.375V1.41675H4.95833V2.83341H3.54167C2.76037 2.83341 2.125 3.46879 2.125 4.25008V14.1667C2.125 14.948 2.76037 15.5834 3.54167 15.5834H13.4583C14.2396 15.5834 14.875 14.948 14.875 14.1667ZM6.375 12.7501H4.95833V11.3334H6.375V12.7501ZM6.375 9.91675H4.95833V8.50008H6.375V9.91675ZM9.20833 12.7501H7.79167V11.3334H9.20833V12.7501ZM9.20833 9.91675H7.79167V8.50008H9.20833V9.91675ZM12.0417 12.7501H10.625V11.3334H12.0417V12.7501ZM12.0417 9.91675H10.625V8.50008H12.0417V9.91675ZM13.4583 6.37508H3.54167V4.95842H13.4583V6.37508Z" fill="#DEDEDE"/>
</svg>
