<svg width="35" height="35" viewBox="0 0 35 35" fill="none" xmlns="http://www.w3.org/2000/svg">
<path d="M31.529 16.1993L18.7963 3.46948C18.4432 3.11799 17.9653 2.92065 17.467 2.92065C16.9688 2.92065 16.4909 3.11799 16.1378 3.46948L13.4996 6.11053L16.8523 9.46469C17.2479 9.33103 17.673 9.3109 18.0794 9.40657C18.4859 9.50224 18.8574 9.7099 19.1518 10.006C19.4462 10.3021 19.6517 10.6747 19.7451 11.0817C19.8385 11.4886 19.8159 11.9136 19.68 12.3084L22.9088 15.5416C23.3868 15.3738 23.9077 15.3738 24.3858 15.5414C24.8638 15.709 25.2706 16.0343 25.5393 16.4638C25.8079 16.8933 25.9224 17.4015 25.8639 17.9047C25.8054 18.4079 25.5774 18.8762 25.2173 19.2326C24.3438 20.1076 22.9336 20.1076 22.0586 19.2326C21.7478 18.9215 21.5355 18.5257 21.4481 18.0947C21.3607 17.6637 21.4021 17.2165 21.5671 16.8089L18.5425 13.8003V21.7293C18.7555 21.8328 18.9596 21.9757 19.1361 22.1522C19.553 22.5721 19.787 23.1398 19.787 23.7316C19.787 24.3233 19.553 24.8911 19.1361 25.3109C18.928 25.5193 18.6809 25.6847 18.4089 25.7975C18.1369 25.9103 17.8453 25.9683 17.5509 25.9683C17.2564 25.9683 16.9648 25.9103 16.6928 25.7975C16.4208 25.6847 16.1737 25.5193 15.9657 25.3109C15.7581 25.1039 15.5934 24.858 15.481 24.5872C15.3686 24.3165 15.3108 24.0262 15.3108 23.733C15.3108 23.4399 15.3686 23.1496 15.481 22.8788C15.5934 22.608 15.7581 22.3621 15.9657 22.1551C16.1873 21.9364 16.4353 21.7701 16.7007 21.6607V13.6545C16.428 13.5428 16.1802 13.3783 15.9715 13.1703C15.7628 12.9623 15.5974 12.715 15.4848 12.4427C15.3723 12.1704 15.3148 11.8785 15.3157 11.5839C15.3167 11.2893 15.376 10.9977 15.4903 10.7262L12.1944 7.41428L3.46338 16.138C2.73421 16.873 2.73421 18.063 3.46338 18.798L16.1961 31.5278C16.3703 31.7025 16.5773 31.841 16.8051 31.9356C17.033 32.0301 17.2772 32.0788 17.5239 32.0788C17.7706 32.0788 18.0148 32.0301 18.2427 31.9356C18.4705 31.841 18.6775 31.7025 18.8517 31.5278L31.5246 18.8564C31.7001 18.6826 31.8396 18.4759 31.9348 18.248C32.0301 18.0201 32.0794 17.7757 32.0798 17.5287C32.0802 17.2818 32.0317 17.0371 31.9372 16.809C31.8427 16.5808 31.7039 16.3736 31.529 16.1993Z" fill="#DEDEDE"/>
</svg>
