<svg width="87" height="24" viewBox="0 0 87 24" fill="none" xmlns="http://www.w3.org/2000/svg">
<path d="M1.624 23C1.38933 23 1.18667 22.9147 1.016 22.744C0.845333 22.5733 0.76 22.3707 0.76 22.136V1.464C0.76 1.22933 0.845333 1.02667 1.016 0.855999C1.18667 0.685332 1.38933 0.599998 1.624 0.599998H12.248C14.296 0.599998 15.9707 0.855998 17.272 1.368C18.5733 1.85866 19.5333 2.60533 20.152 3.608C20.792 4.58933 21.112 5.82667 21.112 7.32C21.112 8.00267 20.9627 8.62133 20.664 9.176C20.3867 9.70933 20.0453 10.1573 19.64 10.52C19.256 10.8827 18.8933 11.1493 18.552 11.32C19.3627 11.6613 20.0667 12.2587 20.664 13.112C21.2827 13.944 21.592 14.8933 21.592 15.96C21.592 17.56 21.24 18.8827 20.536 19.928C19.832 20.952 18.808 21.72 17.464 22.232C16.1413 22.744 14.5093 23 12.568 23H1.624ZM8.76 17.496H11.736C12.2693 17.496 12.6427 17.3253 12.856 16.984C13.0907 16.6213 13.208 16.2693 13.208 15.928C13.208 15.544 13.08 15.192 12.824 14.872C12.5893 14.5307 12.2267 14.36 11.736 14.36H8.76V17.496ZM8.76 9.016H11.448C11.9173 9.016 12.248 8.86667 12.44 8.568C12.6533 8.248 12.76 7.91733 12.76 7.576C12.76 7.23467 12.6533 6.904 12.44 6.584C12.248 6.264 11.9173 6.104 11.448 6.104H8.76V9.016ZM33.322 23.32C31.2313 23.32 29.3967 23 27.818 22.36C26.2607 21.72 25.0233 20.76 24.106 19.48C23.21 18.1787 22.7193 16.5787 22.634 14.68C22.6127 13.8053 22.602 12.8773 22.602 11.896C22.602 10.9147 22.6127 9.96533 22.634 9.048C22.7193 7.17067 23.21 5.58133 24.106 4.28C25.002 2.97867 26.2393 1.98667 27.818 1.304C29.3967 0.621332 31.2313 0.279999 33.322 0.279999C35.4127 0.279999 37.2473 0.621332 38.826 1.304C40.4047 1.98667 41.642 2.97867 42.538 4.28C43.4553 5.58133 43.946 7.17067 44.01 9.048C44.0527 9.96533 44.074 10.9147 44.074 11.896C44.074 12.8773 44.0527 13.8053 44.01 14.68C43.9247 16.5787 43.4233 18.1787 42.506 19.48C41.61 20.76 40.3727 21.72 38.794 22.36C37.2367 23 35.4127 23.32 33.322 23.32ZM33.322 17.08C34.026 17.08 34.5913 16.8773 35.018 16.472C35.4447 16.0453 35.6687 15.384 35.69 14.488C35.7327 13.5707 35.754 12.664 35.754 11.768C35.754 10.872 35.7327 9.98667 35.69 9.112C35.6687 8.51467 35.5513 8.024 35.338 7.64C35.146 7.256 34.8793 6.97867 34.538 6.808C34.1967 6.616 33.7913 6.52 33.322 6.52C32.874 6.52 32.4687 6.616 32.106 6.808C31.7647 6.97867 31.4873 7.256 31.274 7.64C31.082 8.024 30.9753 8.51467 30.954 9.112C30.9327 9.98667 30.922 10.872 30.922 11.768C30.922 12.664 30.9327 13.5707 30.954 14.488C30.9967 15.384 31.2207 16.0453 31.626 16.472C32.0527 16.8773 32.618 17.08 33.322 17.08ZM46.774 23C46.5393 23 46.3367 22.9147 46.166 22.744C45.9953 22.5733 45.91 22.3707 45.91 22.136V1.464C45.91 1.22933 45.9953 1.02667 46.166 0.855999C46.3367 0.685332 46.5393 0.599998 46.774 0.599998H55.99C57.9953 0.599998 59.7873 0.941332 61.366 1.624C62.9447 2.28533 64.2033 3.26667 65.142 4.568C66.102 5.86933 66.614 7.48 66.678 9.4C66.7207 10.3173 66.742 11.128 66.742 11.832C66.742 12.5147 66.7207 13.2933 66.678 14.168C66.5927 16.1733 66.102 17.8373 65.206 19.16C64.31 20.4613 63.0833 21.432 61.526 22.072C59.99 22.6907 58.198 23 56.15 23H46.774ZM53.91 16.76H55.99C56.4593 16.76 56.8753 16.6747 57.238 16.504C57.622 16.312 57.9313 16.024 58.166 15.64C58.4007 15.256 58.5287 14.7653 58.55 14.168C58.5927 13.5493 58.614 12.9947 58.614 12.504C58.6353 12.0133 58.6353 11.5227 58.614 11.032C58.614 10.52 58.5927 9.976 58.55 9.4C58.5073 8.504 58.2193 7.85333 57.686 7.448C57.174 7.04267 56.5553 6.84 55.83 6.84H53.91V16.76ZM69.4115 23C69.1768 23 68.9742 22.9147 68.8035 22.744C68.6328 22.5733 68.5475 22.3707 68.5475 22.136V1.464C68.5475 1.22933 68.6328 1.02667 68.8035 0.855999C68.9742 0.685332 69.1768 0.599998 69.4115 0.599998H85.8275C86.0622 0.599998 86.2648 0.685332 86.4355 0.855999C86.6062 1.02667 86.6915 1.22933 86.6915 1.464V5.976C86.6915 6.21067 86.6062 6.41333 86.4355 6.584C86.2648 6.75467 86.0622 6.84 85.8275 6.84H76.2275V8.856H85.1235C85.3582 8.856 85.5608 8.94133 85.7315 9.112C85.9022 9.28267 85.9875 9.48533 85.9875 9.72V13.88C85.9875 14.1147 85.9022 14.3173 85.7315 14.488C85.5608 14.6587 85.3582 14.744 85.1235 14.744H76.2275V16.76H86.0835C86.3182 16.76 86.5208 16.8453 86.6915 17.016C86.8622 17.1867 86.9475 17.3893 86.9475 17.624V22.136C86.9475 22.3707 86.8622 22.5733 86.6915 22.744C86.5208 22.9147 86.3182 23 86.0835 23H69.4115Z" fill="white"/>
</svg>
