<svg width="24" height="24" viewBox="0 0 24 24" fill="none" xmlns="http://www.w3.org/2000/svg">
<g clip-path="url(#clip0_201_2)">
<path d="M19.6201 18.94L14.3101 9.51001L19.7501 19.21C19.7101 19.12 19.6701 19.03 19.6201 18.94V18.94Z" fill="white"/>
<path d="M23.85 20.3599C23.5 20.9699 22.73 20.9999 22.58 20.9999H19.14C19.86 20.9999 20.31 20.2199 19.96 19.5899L19.95 19.5799H22.5L15.56 7.27993L14.31 9.50993L13.5 8.07993L14.41 6.46993C14.77 5.81993 15.23 5.67993 15.55 5.67993C16.25 5.67993 16.66 6.33993 16.73 6.46993L23.75 18.9599C24.12 19.6099 24.01 20.0799 23.85 20.3599V20.3599Z" fill="white"/>
<path d="M13.5002 8.08L12.6902 9.51L9.93018 4.6L1.50018 19.58H7.00018L6.99018 19.59C6.63018 20.22 7.09018 21 7.81018 21H1.40018C0.650175 21 0.310175 20.67 0.150175 20.39C-0.199825 19.78 0.160175 19.09 0.230175 18.96L8.77018 3.79C9.14018 3.14 9.59018 3 9.91018 3C10.6102 3 11.0202 3.66 11.0902 3.78L13.5002 8.08Z" fill="white"/>
<path d="M19.6152 18.7839L19.6162 18.7859L19.6152 18.7839Z" fill="white"/>
<path d="M19.8532 19.409C19.8571 19.409 19.8602 19.4085 19.8602 19.408C19.8602 19.4074 19.8571 19.407 19.8532 19.407C19.8493 19.407 19.8462 19.4074 19.8462 19.408C19.8462 19.4085 19.8493 19.409 19.8532 19.409Z" fill="white"/>
<path d="M19.624 18.8L19.616 18.786L19.619 18.792L19.624 18.8ZM19.76 19.24C19.8 19.35 19.84 19.46 19.86 19.58H19.95L19.76 19.24ZM7.17 19.58V19.56C7.21 19.34 7.28 19.14 7.38 18.96L12.56 9.75L7 19.58H7.17V19.58Z" fill="white"/>
<path d="M19.96 19.5901L19.95 19.5801H19.86C19.84 19.4601 19.8 19.3501 19.76 19.2401L19.75 19.2101L14.31 9.51008L13.5 8.08008L12.69 9.51008L12.56 9.75008L7.37999 18.9601C7.27999 19.1401 7.20999 19.3401 7.16999 19.5601V19.5801H6.99999L6.98999 19.5901C6.62999 20.2201 7.08999 21.0001 7.80999 21.0001H19.14C19.86 21.0001 20.31 20.2201 19.96 19.5901V19.5901ZM8.63999 19.5801L13.5 10.9401L18.36 19.5801H8.63999Z" fill="white"/>
</g>
<defs>
<clipPath id="clip0_201_2">
<rect width="24" height="24" fill="white"/>
</clipPath>
</defs>
</svg>
